<svg viewBox="0 0 400 300" xmlns="http://www.w3.org/2000/svg"><path d="m131 103.21s-22.38 33.16-21.17 58.72 0 37.73 0 37.73l34.54 2.84 6.84-19.21z" fill="#f4a28c"/><path d="m126.47 172.48s8.82 17.27 2 28.71l15.88 1.31 6.84-19.21s-6.06-20.15-24.72-10.81z" opacity=".09"/><path d="m253.28 151.42-12.81-82.07-93.58 14.61-10.53-6.68-7.92 9.56 15.34 98.25 112.03-17.49 7.92-9.55z" fill="#ffd200"/><path d="m253.28 151.42-12.81-82.07-93.58 14.61-10.53-6.68-7.92 9.56 15.34 98.25 112.03-17.49 7.92-9.55z" opacity=".09"/><path d="m143.35 67.94h113.39v99.44h-113.39z" fill="#ffd200" transform="matrix(.98804074 -.15419307 .15419307 .98804074 -15.75 32.26)"/><circle cx="159.95" cy="86.37" opacity=".09" r="5.84"/><rect fill="#24285b" height="22.47" rx="2.67" transform="matrix(.98804074 -.15419307 .15419307 .98804074 -9.88 25.29)" width="6.37" x="154.9" y="65.12"/><circle cx="181.81" cy="82.95" opacity=".09" r="5.84"/><rect fill="#24285b" height="22.47" rx="2.67" transform="matrix(.98804074 -.15419307 .15419307 .98804074 -9.1 28.62)" width="6.37" x="176.77" y="61.7"/><circle cx="202.91" cy="79.66" opacity=".09" r="5.84"/><rect fill="#24285b" height="22.47" rx="2.67" transform="matrix(.98804074 -.15419307 .15419307 .98804074 -8.34 31.84)" width="6.37" x="197.86" y="58.41"/><circle cx="224" cy="76.37" opacity=".09" r="5.84"/><rect fill="#24285b" height="22.47" rx="2.67" transform="matrix(.98804074 -.15419307 .15419307 .98804074 -7.58 35.05)" width="6.37" x="218.96" y="55.12"/><g fill="#fff"><circle cx="153.68" cy="108.24" opacity=".46" r="2.52"/><circle cx="156.49" cy="126.25" opacity=".46" r="2.52"/><circle cx="159.3" cy="144.26" opacity=".46" r="2.52"/></g><path d="m165.14 106.45 70.77-11.05" fill="none" stroke="#fff" stroke-linecap="round" stroke-linejoin="bevel" stroke-width="2"/><path d="m167.95 124.46 70.78-11.05" fill="none" stroke="#fff" stroke-linecap="round" stroke-linejoin="bevel" stroke-width="2"/><path d="m170.76 142.47 70.78-11.04" fill="none" stroke="#fff" stroke-linecap="round" stroke-linejoin="bevel" stroke-width="2"/><path d="m128.44 141.08 21.83-17.24c7.92-6.25 17.88 5.16 10.42 12-.42.38-.88.77-1.39 1.15a48.86 48.86 0 0 0 -16.2 21.73s3.65 18.26-9.74 23.74-30.53-15.77-4.92-41.38z" fill="#f4a28c"/><path d="m104.56 196.01 46.6 6.49-3.19 43.01-52.88-4.87z" fill="#68e1fd"/><path d="m216 129.35c-6.25.22-9.16-7.66-4.46-11.79 9-7.88 24.37-16.91 43.25-9.77 30.43 11.49 44.43 61.77 44.43 61.77l-27.73 13.21s-24.49-26.89-47.12-33.37c-8-2.31-6.32-14.37 2-13.83l.92.09c11.26 1.52 17.77 10.52 25.08 7.17s9.74-17.74-4.26-21.25c-10.83-2.72-18.86 7.32-32.11 7.77z" fill="#f4a28c"/><path d="m200.05 124.46-11.66 4.31 12.66 8.98 80.14 17.36 3.1-16.11-36.25-11.78z" opacity=".09"/><path d="m203.03 125.46h72.42v12.43h-72.42z" fill="#24285b" transform="matrix(.97726812 .21200711 -.21200711 .97726812 33.35 -47.72)"/><path d="m205.17 117.92-16.78 2.72 14.14 9.43z" fill="#fff"/><path d="m274.43 134.94h17.11v12.43h-17.11z" fill="#68e1fd" transform="matrix(.97726812 .21200711 -.21200711 .97726812 36.35 -56.78)"/><path d="m261.57 179.98 42.25-11.69 19.83 77.22h-55.99z" fill="#68e1fd"/><path d="m133.26 117.66a41.91 41.91 0 0 0 -4.82 23.42l7.54-6z" opacity=".09"/></svg>